<svg xmlns="http://www.w3.org/2000/svg" data-name="Layer 1" viewBox="0 0 512 512"><g data-name="&lt;Group&gt;"><g data-name="&lt;Group&gt;"><path fill="#00efd1" d="M287.5,82H260V72.886C260,56.344,246.175,43,229.633,43H183V15a10,10,0,0,0-20,0V43H120.3C103.758,43,90,56.344,90,72.886V82H71.967C55.425,82,42,95.835,42,112.377V437H20v20H246V437H123V376.377c0-5.514,4.486-10.377,10-10.377h83V346H133c-16.542,0-30,13.835-30,30.377V437H62V112.377C62,106.863,66.453,102,71.967,102H287.5c5.514,0,9.5,4.863,9.5,10.377V238h20V112.377C317,95.835,304.042,82,287.5,82ZM110,72.886A10.176,10.176,0,0,1,120.3,63H229.633C235.147,63,240,67.372,240,72.886V82H110Z" data-name="&lt;Compound Path&gt;"/><path fill="#00efd1" d="M156 140a10 10 0 0 0-10-10H89a10 10 0 0 0-10 10v57a10 10 0 0 0 10 10h57a10 10 0 0 0 10-10zm-20 47H99V150h37zM275 140a10 10 0 0 0-10-10H208a10 10 0 0 0-10 10v57a10 10 0 0 0 10 10h57a10 10 0 0 0 10-10zm-19 47H218V150h38zM156 248a10 10 0 0 0-10-10H89a10 10 0 0 0-10 10v57a10 10 0 0 0 10 10h57a10 10 0 0 0 10-10zm-20 47H99V258h37z" data-name="&lt;Compound Path&gt;"/><path fill="#00efd1" d="M265.533,238h-57.2A10.271,10.271,0,0,0,198,247.977v57.2c0,5.522,4.811,9.823,10.333,9.823H230V295H218V258h38v3h20V247.977C276,242.454,271.056,238,265.533,238Z" data-name="&lt;Path&gt;"/></g><g data-name="&lt;Group&gt;"><path fill="#00acea" d="M349.018,221.036c-78.84,0-142.982,64.142-142.982,142.982S270.178,507,349.018,507,492,442.858,492,364.018,427.858,221.036,349.018,221.036Zm0,265.964A122.982,122.982,0,1,1,472,364.018,123.121,123.121,0,0,1,349.018,487Z" data-name="&lt;Compound Path&gt;"/><path fill="#00acea" d="M401.531,319H387.254A10.483,10.483,0,0,0,377,329.3V349H323V329.3A10.644,10.644,0,0,0,312.563,319H298.286A23.908,23.908,0,0,0,274.8,339.544,23.918,23.918,0,0,0,252,363.5v12.543a24,24,0,0,0,22.573,24.045A23.991,23.991,0,0,0,298.286,423h14.277A10.807,10.807,0,0,0,323,412.514V393h54v19.514A10.645,10.645,0,0,0,387.254,423h14.277a24.072,24.072,0,0,0,23.8-22.908A24.084,24.084,0,0,0,448,376.047V363.506a24,24,0,0,0-22.887-23.96A24,24,0,0,0,401.531,319ZM272,376.047V363.5a4.174,4.174,0,0,1,2-3.621v19.785A4.174,4.174,0,0,1,272,376.047ZM303,403h-4.714A4.689,4.689,0,0,1,294,398.682V343.135A4.517,4.517,0,0,1,298.286,339H303Zm20-30v-4h54v4Zm82,25.682c0,2.113-1.356,4.318-3.469,4.318H397V339h4.531c2.113,0,3.469,2.022,3.469,4.136Zm23-35.176v12.541a3.632,3.632,0,0,1-3,3.621V359.885A3.632,3.632,0,0,1,428,363.506Z" data-name="&lt;Compound Path&gt;"/></g></g></svg>